<svg xmlns="http://www.w3.org/2000/svg" viewBox="0 0 960 590" role="img" aria-labelledby="t d">
<title id="t">Atendimento técnico e conectividade</title><desc id="d">Ilustração conceitual de um técnico diante de notebook, roteador e ferramentas durante atendimento.</desc>
<defs><linearGradient id="bg" x1="0" y1="0" x2="1" y2="1"><stop stop-color="#122640"/><stop offset="1" stop-color="#07111f"/></linearGradient><linearGradient id="screen" x1="0" x2="1" y1="0" y2="1"><stop stop-color="#1f5189"/><stop offset="1" stop-color="#0c1930"/></linearGradient><linearGradient id="desk" x1="0" x2="0" y1="0" y2="1"><stop stop-color="#243c58"/><stop offset="1" stop-color="#102037"/></linearGradient><filter id="glow"><feGaussianBlur stdDeviation="26"/></filter></defs>
<rect width="960" height="590" rx="24" fill="url(#bg)"/><path d="M0 99H960M0 198H960M0 297H960M0 396H960M0 495H960M120 0V590M240 0V590M360 0V590M480 0V590M600 0V590M720 0V590M840 0V590" stroke="#3d5975" opacity=".11"/>
<circle cx="810" cy="110" r="135" fill="#246dc9" opacity=".16" filter="url(#glow)"/><circle cx="120" cy="418" r="120" fill="#f28c45" opacity=".11" filter="url(#glow)"/>
<rect x="51" y="52" width="370" height="244" rx="17" fill="#182f4c" stroke="#47698c" stroke-width="2"/><rect x="67" y="67" width="338" height="210" rx="9" fill="url(#screen)"/>
<path d="M93 232L148 179L195 202L255 135L310 158L377 98" stroke="#77b4ff" stroke-width="4" stroke-linecap="round" stroke-linejoin="round" fill="none"/><circle cx="148" cy="179" r="6" fill="#ffad73"/><circle cx="255" cy="135" r="6" fill="#ffad73"/><circle cx="377" cy="98" r="6" fill="#ffad73"/>
<rect x="93" y="94" width="106" height="12" rx="6" fill="#8cbaff" opacity=".8"/><rect x="93" y="118" width="73" height="8" rx="4" fill="#87a8ce" opacity=".7"/><rect x="165" y="292" width="144" height="13" rx="6.5" fill="#425d7b"/><rect x="212" y="305" width="51" height="33" rx="6" fill="#2a4360"/>
<path d="M0 466C178 438 346 448 506 452C692 456 825 447 960 465V590H0Z" fill="url(#desk)"/><path d="M0 468C232 451 404 454 588 465C746 472 859 456 960 468" stroke="#6385a5" stroke-width="3" opacity=".58"/>
<g transform="translate(110 372)"><rect x="0" y="0" width="270" height="87" rx="12" fill="#0d1a2b" stroke="#557a9e" stroke-width="2"/><path d="M-14 90H292L271 106H6Z" fill="#809ab5"/><rect x="19" y="14" width="230" height="60" rx="6" fill="#174371"/><path d="M43 58H94M43 40H154M173 40H218M173 58H204" stroke="#87b9f0" stroke-width="5" stroke-linecap="round"/><path d="M36 30l9 7 15-17" stroke="#7cd8ba" stroke-width="4" fill="none" stroke-linecap="round" stroke-linejoin="round"/></g>
<g transform="translate(610 110)"><path d="M103 140C45 139 16 176 13 239L0 353H256L248 244C243 174 215 138 165 134Z" fill="#162e4a" stroke="#426587" stroke-width="3"/><path d="M85 146c10 39 75 57 99 0" fill="none" stroke="#7cb2e8" stroke-width="4"/><rect x="100" y="98" width="71" height="73" rx="26" fill="#db9f79"/><ellipse cx="137" cy="82" rx="66" ry="76" fill="#e6b18e"/><path d="M74 80c-10-54 27-93 76-90 56 3 82 58 48 103l-7-44c-30 18-73 13-102 7Z" fill="#101a2a"/><path d="M84 95c-12-10-20-4-15 11s18 18 22 6M186 97c12-11 21-4 16 11s-17 17-21 6" fill="#d29a78"/><path d="M113 94h9M158 94h9" stroke="#243144" stroke-width="5" stroke-linecap="round"/><path d="M131 124q12 9 24-1" fill="none" stroke="#9a654d" stroke-width="4" stroke-linecap="round"/><path d="M109 197l42 53 42-53" fill="#203e60" stroke="#5a89b8" stroke-width="3"/><path d="M108 196l30 47-18 88-13-26 12-61-26-26ZM195 194l-35 49 24 89 10-28-14-59 29-27Z" fill="#264b75"/><rect x="123" y="256" width="60" height="52" rx="7" fill="#eaf4ff"/><rect x="132" y="266" width="41" height="5" rx="2.5" fill="#2f6df6"/><path d="M132 280h41M132 288h28" stroke="#7c91a9" stroke-width="3"/></g>
<path d="M728 442c-27-18-62-38-103-26l-43 20 24 35 65-9 35 22M814 441c25 12 43 30 66 41" stroke="#d8a17f" stroke-width="31" stroke-linecap="round" fill="none"/><path d="M599 446l71-27 9 25-65 35Z" fill="#e9b18b"/>
<g transform="translate(403 469)"><rect x="0" y="0" width="132" height="45" rx="9" fill="#101c2c" stroke="#6d89a7" stroke-width="2"/><path d="M28 0v-45M102 0v-45" stroke="#7f9ab2" stroke-width="5" stroke-linecap="round"/><circle cx="25" cy="23" r="4" fill="#7bdac3"/><circle cx="42" cy="23" r="4" fill="#7bdac3"/><path d="M73 23h40" stroke="#2f6df6" stroke-width="5" stroke-linecap="round"/></g>
<g transform="translate(725 500)"><path d="M0 3h92v16H0Z" fill="#11243a" stroke="#5b83a9" stroke-width="2"/><path d="M10-16h75v18H10Z" fill="#1d4975"/><path d="M20-37h58v21H20Z" fill="#336b9f"/><rect x="96" y="-21" width="12" height="45" rx="6" fill="#f28c45"/></g>
<circle cx="81" cy="341" r="5" fill="#72a9e8"/><circle cx="446" cy="148" r="5" fill="#72a9e8"/><path d="M444 148h90l33 32" stroke="#4b82b8" stroke-width="2" stroke-dasharray="7 7" fill="none"/>
</svg>