<svg xmlns="http://www.w3.org/2000/svg" width="660" height="920" viewBox="0 0 660 920" role="img" aria-labelledby="title desc">
<title id="title">PC Seguro, edição 2.2 Premium</title><desc id="desc">Arte editorial de apresentação do guia de 29 páginas e quatro PDFs complementares da PROXITI.</desc>
<defs><linearGradient id="bg" x1="0" y1="0" x2="1" y2="1"><stop stop-color="#091a2f"/><stop offset=".55" stop-color="#12365a"/><stop offset="1" stop-color="#071321"/></linearGradient><linearGradient id="accent" x1="0" y1="0" x2="1" y2=".8"><stop stop-color="#79b5ff"/><stop offset="1" stop-color="#2464c9"/></linearGradient><filter id="shadow"><feDropShadow dx="0" dy="14" stdDeviation="18" flood-color="#000" flood-opacity=".35"/></filter></defs>
<rect width="660" height="920" fill="url(#bg)"/><g fill="none" stroke="#5b9ee7" stroke-opacity=".18"><path d="M-20 655H675M-20 725H675M-20 795H675M40 580V900M110 580V900M180 580V900M250 580V900M320 580V900M390 580V900M460 580V900M530 580V900M600 580V900"/></g>
<path d="M440 0L660 0 660 265Z" fill="#3979d0" opacity=".10"/>
<text x="48" y="66" font-family="Arial,Helvetica,sans-serif" font-size="26" font-weight="800" letter-spacing="6" fill="#eaf5ff">PROXI<tspan fill="#6eafff">TI</tspan></text>
<rect x="48" y="104" rx="16" width="204" height="32" fill="#243e5c" stroke="#5b8fc0"/><text x="64" y="125" font-family="Arial,Helvetica,sans-serif" font-size="14" font-weight="700" letter-spacing="1.2" fill="#e6f0ff">EDIÇÃO 2.2 PREMIUM</text>
<text x="48" y="238" font-family="Arial,Helvetica,sans-serif" font-size="110" font-weight="900" letter-spacing="-4" fill="#fff">PC</text>
<text x="42" y="341" font-family="Arial,Helvetica,sans-serif" font-size="96" font-weight="900" letter-spacing="-5" fill="url(#accent)">SEGURO</text>
<text x="49" y="391" font-family="Arial,Helvetica,sans-serif" font-size="23" fill="#dce7f6">Guia prático de segurança digital</text><text x="49" y="423" font-family="Arial,Helvetica,sans-serif" font-size="23" fill="#dce7f6">para usuários comuns.</text>
<g filter="url(#shadow)"><rect x="80" y="488" width="500" height="290" rx="24" fill="#0c223b" stroke="#5c98e1" stroke-width="2"/><rect x="110" y="517" width="440" height="216" rx="12" fill="#153f6a" stroke="#85bdff"/><path d="M330 538l102 43v57c0 63-42 106-102 129-60-23-102-66-102-129v-57Z" fill="#184f86" stroke="#89c5ff" stroke-width="5"/><path d="M301 628v-23c0-18 13-31 29-31s29 13 29 31v23" fill="none" stroke="#e9f5ff" stroke-width="9" stroke-linecap="round"/><rect x="286" y="620" width="88" height="78" rx="12" fill="#eff8ff"/><circle cx="330" cy="652" r="8" fill="#2465a3"/><path d="M330 656v18" stroke="#2465a3" stroke-width="6" stroke-linecap="round"/></g>
<rect x="48" y="814" width="564" height="60" rx="12" fill="#112b48" stroke="#3f688d"/><text x="67" y="840" font-family="Arial,Helvetica,sans-serif" font-size="18" font-weight="700" fill="#fff">29 páginas + 4 ferramentas em PDF</text><text x="67" y="861" font-family="Arial,Helvetica,sans-serif" font-size="14" fill="#a8bed8">Diagnóstico · plano de 30 dias · checklist · recuperação</text>
<path d="M48 892H612" stroke="#426e9b"/><text x="48" y="912" font-family="Arial,Helvetica,sans-serif" font-size="11" letter-spacing="2" fill="#a1b5c9">SEGURANÇA PRÁTICA PARA O DIA A DIA</text>
</svg>